<svg xmlns="http://www.w3.org/2000/svg" width="760" height="281" viewBox="0 0 760 281"><g transform="translate(-20 -550)"><rect width="116" height="281" transform="translate(20 550)" fill="#f7f6f1"/><rect width="644" height="40" transform="translate(136 550)" fill="#f7f6f1"/><path d="M8.184-1.728,6.456-6.84H5L3.372-1.728,1.908-6.972H.312L2.556,0H4L5.748-5.184,7.524,0H8.952l2.256-6.972h-1.6Zm7.7.708A1.965,1.965,0,0,1,13.7-3.228h4.584v-.84c0-1.824-.768-3.144-2.7-3.144-2.184,0-3.324,1.668-3.324,3.816,0,2.052,1.008,3.6,3.516,3.6a6.01,6.01,0,0,0,2.412-.468l-.264-1.152a5.4,5.4,0,0,1-2.028.4ZM15.444-6.1c1.116,0,1.512.708,1.524,1.836H13.74A1.818,1.818,0,0,1,15.432-6.1ZM21.288,0l.18-.636a3.063,3.063,0,0,0,2,.8c2.2,0,2.94-1.752,2.94-3.8,0-2.208-.924-3.528-2.736-3.528a2.69,2.69,0,0,0-2.112,1V-9.744l-1.416.216V0Zm.228-3.852a5.351,5.351,0,0,1,.072-.948,1.977,1.977,0,0,1,1.8-1.14c1.14,0,1.56,1.02,1.56,2.34,0,1.488-.42,2.568-1.716,2.568a2.015,2.015,0,0,1-1.644-.828,5.96,5.96,0,0,1-.072-1.08Zm15.54-6.276v9.48c0,.228-.06.36-.324.384a9.885,9.885,0,0,1-1.176-.012L35.82.984A10.375,10.375,0,0,0,37.356.96c.756-.12.984-.576.984-1.38v-9.708ZM34.8-8.8v6.924h1.224V-8.8Zm-1.944,4.4H31.62V-5.436h2.736v-1.1H31.62V-7.656h2.436v-1.1H31.62v-1.368H30.36V-8.76h-.84a8.342,8.342,0,0,0,.216-1.116L28.6-9.924a8.309,8.309,0,0,1-1.044,3l1.1.312a8.466,8.466,0,0,0,.5-1.044h1.2V-6.54H27.576v1.1H30.36v1.044H28.008V.216h1.164v-3.48H30.36V1.008h1.26V-3.264h1.236V-1.1c0,.1-.036.144-.144.144a3.22,3.22,0,0,1-.576-.012c0,.024,0,.048.192,1.1a5.741,5.741,0,0,0,1.14-.024c.432-.1.576-.408.576-.936V-4.392H32.856ZM42.54-7.1a19.163,19.163,0,0,0,1-2.724L42.2-10.14a15.444,15.444,0,0,1-2.76,5.7l.84,1.1a15.045,15.045,0,0,0,.948-1.344V1.008H42.54ZM47.424-2.94V-4.368H50.16V-5.532H47.424v-1.38h3.288V-8.1H45.9a15.692,15.692,0,0,0,.54-1.764l-1.32-.276a12.4,12.4,0,0,1-2.4,5.076l1.02.84A13.946,13.946,0,0,0,45.4-6.912h.684v7.92h1.344V-1.776h2.9V-2.94ZM60.4-6.1a13.8,13.8,0,0,0,1.632.816l.828-1.14a11.731,11.731,0,0,1-5.136-3.708H56.472A10.77,10.77,0,0,1,51.48-6.42l.768,1.128a11.085,11.085,0,0,0,1.716-.888v.708H60.4ZM54.66-6.648A13.031,13.031,0,0,0,57.084-8.94a14.056,14.056,0,0,0,2.484,2.292ZM52.1-.588l.288,1.3c2.016-.168,5.544-.456,7.92-.7a10.68,10.68,0,0,1,.636,1.008L62.112.312a17.357,17.357,0,0,0-2.928-3.4l-1.02.636c.492.48.948.96,1.344,1.428-1.284.1-2.808.192-4.224.276.48-.888.924-1.8,1.272-2.568h5.628V-4.488H52.116v1.176h3c-.312.78-.756,1.74-1.212,2.64C53.22-.636,52.608-.612,52.1-.588ZM66.732-3.552a17.893,17.893,0,0,1,1.2,1.56l.936-.876c-.42-.48-1.152-1.188-1.836-1.848a11.846,11.846,0,0,0,1.476-3.1l-.768-.324H66.732v-1.992H65.424v1.992H63.708v1.188h3.156a9.5,9.5,0,0,1-3.456,4.14l.756,1.056a9.286,9.286,0,0,0,1.26-1.032V1.008h1.308ZM67.824-.516V.7h6.9V-.516H72.036V-5.148h2.208V-6.36H72.036v-3.768H70.692V-6.36H68.508v1.212h2.184V-.516Z" transform="translate(179.422 576)" fill="#333"/><path d="M2.1-8.664H1.452v2.952A14.216,14.216,0,0,1,.408.216L1.56.972a16.749,16.749,0,0,0,1.2-6.7V-7.476h8.664V-8.664H7.02v-1.464H5.664v1.464H2.1Zm.42,7.98L2.856.6c1.716-.216,4.68-.612,6.72-.912.168.444.324.876.444,1.3L11.328.42A19.88,19.88,0,0,0,8.652-4.644L7.5-4.176a23.6,23.6,0,0,1,1.608,2.8c-1.224.156-2.736.324-4.092.456.768-2.028,1.464-4.2,1.92-5.868L5.58-7.032A56.987,56.987,0,0,1,3.708-.792C3.264-.744,2.856-.708,2.52-.684Zm9.912-4.884V-4.44H23.568V-5.568H18.624V-7.392h3.732V-8.52H18.624v-1.62H17.268v1.62h-1.56a10.983,10.983,0,0,0,.4-1.26L14.8-10.02a7.957,7.957,0,0,1-1.908,3.672l1.164.624A9.379,9.379,0,0,0,15.2-7.392h2.064v1.824ZM20.688.6v.408h1.356V-3.576H13.956V1.008h1.308V.6ZM15.264-.54v-1.9h5.424v1.9Zm17.1-8.772A9.634,9.634,0,0,1,34.14-7.488l.972-.72A9.28,9.28,0,0,0,33.2-10ZM27.492-6.924a18.847,18.847,0,0,0,1.152-2.892L27.3-10.14a14.693,14.693,0,0,1-3.012,5.7L25.2-3.4c.348-.42.672-.852.984-1.3V1.02h1.308Zm.42.816.144,1.284,2.8-.372C31.368-1.692,32.28.732,33.8.972c1.08.168,1.668-.42,1.884-2.772l-1.152-.336c-.072,1.308-.18,1.7-.456,1.68-.816-.072-1.488-1.956-1.9-4.92l3.408-.444-.168-1.272-3.384.444c-.108-1.056-.18-2.208-.216-3.444H30.408c.06,1.272.156,2.5.288,3.624ZM44.5-7.452v-1.1h1.392v1.1Zm-2.6-1.1H43.2v1.1H41.892Zm2.6,3.192V-6.5h1.392v1.14Zm-2.6-1.14H43.2v1.14H41.892ZM39.828-.54V.612h7.74V-.54H44.5V-1.932h2.628V-3.084H44.5V-4.236h2.652V-9.684h-6.48v5.448H43.2v1.152H40.692v1.152H43.2V-.54ZM36.336-1.86l.276,1.284c.984-.252,2.664-.744,3.768-1.08l-.1-1.1c-.336.084-.744.18-1.164.276V-4.872h1V-6.036h-1V-8.2h1.164V-9.384H36.516V-8.2h1.332v2.16h-1.14v1.164h1.14v2.688C37.272-2.064,36.732-1.944,36.336-1.86ZM50.064-8.892H49.38v3a14.33,14.33,0,0,1-1.1,6.108L49.428.96A16.751,16.751,0,0,0,50.688-5.9v-1.86h8.88V-8.892H55.02v-1.236H53.664v1.236h-3.6ZM57.288.636v.372H58.62V-3.564h-3.4v-1.5h4.068V-6.216H55.224V-7.44H53.892v3.876H51.108V1.008h1.284V.636ZM52.392-.54V-2.4h4.9V-.54Z" transform="translate(348 576)" fill="#333"/><g transform="translate(0 -6)"><path d="M5.92-4.7,6.112,0h1.2l-.32-6.144H5.36L3.96-1.776,2.528-6.144H.952L.632,0H1.76l.168-4.7L3.392-.264H4.44ZM8,0H9.2l.52-1.48h2.24L12.5,0h1.312l-2.36-6.144h-1.1Zm2.016-2.4.848-2.44L11.7-2.4ZM18.072,0h1.272c-.264-.656-.768-1.776-1-2.248A1.289,1.289,0,0,0,17.7-2.9,1.454,1.454,0,0,0,18.72-4.432c0-1.464-1.152-1.712-2.576-1.712h-1.52V0h1.12V-2.424h.744c.44,0,.648.2.944.84C17.64-1.128,17.936-.416,18.072,0Zm-1.3-3.368H15.744V-5.144h.528c.728,0,1.28.136,1.28.848A.853.853,0,0,1,16.768-3.368Zm5.88.256,2.384-3.032h-1.48L21.432-3.12V-6.144H20.24V0h1.192V-2.944L23.624,0h1.584Zm4.488-2h2.248V-6.144H25.968V0h3.568V-1.032h-2.4V-2.64H29.1v-.984h-1.96ZM32.84,0V-5.112h1.632V-6.144H30.024v1.032h1.624V0Zm3.688-6.144H35.336V0h1.192ZM39.16-4.8,41.688,0h1.36V-6.144h-1.12v4.336l-2.3-4.336H38.048V0H39.16ZM48.1-1.008a2.523,2.523,0,0,1-.648.08c-1.3,0-1.864-.712-1.864-2.056,0-1.424.576-2.224,1.832-2.224a3.574,3.574,0,0,1,1.168.192l.2-1.072a6.293,6.293,0,0,0-1.4-.176C44.92-6.264,44.3-4.648,44.3-3c0,1.616.648,3.1,3.1,3.1a5.648,5.648,0,0,0,1.8-.288v-3.3H46.984V-2.5H48.1Z" transform="translate(30 650)" fill="#aea772"/><path d="M8.328-.408C7.872-.96,7.3-1.608,6.66-2.268A38.37,38.37,0,0,0,11.3-7.74l-1.1-.792H1.14V-7.2H9.072a26.522,26.522,0,0,1-3.4,3.948C4.92-3.972,4.14-4.668,3.432-5.22l-1.008.912A27.781,27.781,0,0,1,7.128.528Zm4.764-4.86v1.452h9.816V-5.268Zm19.356-.744H35.2V-7.32H28.884a14.475,14.475,0,0,0,.78-2.064L28.32-9.768a13.341,13.341,0,0,1-3.528,5.9l1.164.828a12.931,12.931,0,0,0,2.256-2.976H31.02A6.418,6.418,0,0,1,27.1-.288L28.2.744A8.033,8.033,0,0,0,32.448-6.012Zm5.916-2.964V-7.7h7.26V-8.976ZM43.02-4.8h3.948V-6.072H37.02V-4.8h4.572C41.52-2.652,41-1.488,38.532-.408L39.6.708A5.557,5.557,0,0,0,43.02-4.8Zm10.716.36A15.012,15.012,0,0,0,56.22-6.66l-.972-.78A16,16,0,0,1,48.9-3.12l.66,1.068a17.577,17.577,0,0,0,2.88-1.512v4.2h1.3ZM60.06-8.8l-.876,1.152a18.97,18.97,0,0,1,3.06,2.124l.936-1.164A26.078,26.078,0,0,0,60.06-8.8ZM59.484-.78,60.216.576a15.983,15.983,0,0,0,8.268-6.168L67.56-6.66A14.135,14.135,0,0,1,59.484-.78Zm20.2-9.18a8.155,8.155,0,0,1,1.152,1.536l.66-.5a8.182,8.182,0,0,0-1.176-1.524Zm-1.5.6a7.345,7.345,0,0,1,1.152,1.536l.66-.5a7.7,7.7,0,0,0-1.176-1.524Zm-3.024,1.4c.264-.468.492-.924.684-1.356l-1.332-.48A14.022,14.022,0,0,1,70.476-4.38l1.08.876A15,15,0,0,0,74.388-6.72h3.576A8.3,8.3,0,0,1,72.3-.456L73.236.7c3.612-1.5,5.52-4.08,6.468-8.16l-1.02-.492Z" transform="translate(30 636)" fill="#333"/></g><g transform="translate(0 -6)"><path d="M.792-6.144V0H2.544c2.52,0,3.232-1.28,3.232-3.088,0-2.144-1.04-3.056-3.168-3.056ZM4.528-3.088c0,1.32-.568,2.056-1.928,2.056H1.968v-4.08H2.6c1.432,0,1.928.736,1.928,2.016Zm3.72-2.024H10.5V-6.144H7.08V0h3.568V-1.032h-2.4V-2.64h1.96v-.984H8.248Zm6.968-.816a4.24,4.24,0,0,0-1.664-.312,1.748,1.748,0,0,0-1.944,1.784c0,1.016.592,1.368,1.448,1.744.784.352,1.12.616,1.12,1.04,0,.568-.448.728-.824.728a4.179,4.179,0,0,1-1.608-.4l-.3,1.08A5.379,5.379,0,0,0,13.408.1a1.732,1.732,0,0,0,1.976-1.848c0-1.1-.784-1.512-1.656-1.936-.528-.256-.944-.464-.944-.848,0-.584.52-.688.9-.688A3.111,3.111,0,0,1,14.9-4.9ZM17.8-6.144H16.608V0H17.8Zm5.1,5.136a2.523,2.523,0,0,1-.648.08c-1.3,0-1.864-.712-1.864-2.056,0-1.424.576-2.224,1.832-2.224a3.574,3.574,0,0,1,1.168.192l.2-1.072a6.293,6.293,0,0,0-1.4-.176C19.72-6.264,19.1-4.648,19.1-3c0,1.616.648,3.1,3.1,3.1A5.648,5.648,0,0,0,24-.184v-3.3H21.784V-2.5H22.9ZM26.416-4.8,28.944,0H30.3V-6.144h-1.12v4.336l-2.3-4.336H25.3V0h1.112Z" transform="translate(30 730)" fill="#aea772"/><path d="M10.224-10.056a6.4,6.4,0,0,1,1.152,1.38l.6-.468A6.95,6.95,0,0,0,10.8-10.536Zm-7.86,1.08V-7.7H9.348V-8.9a6.981,6.981,0,0,1,1.08,1.344l.6-.468a7.642,7.642,0,0,0-1.152-1.4l-.564.456ZM7.02-4.8h3.948V-6.072H1.02V-4.8H5.592C5.52-2.652,5-1.488,2.532-.408L3.6.708A5.557,5.557,0,0,0,7.02-4.8Zm15.228-5.256a6.372,6.372,0,0,1,1.128,1.4l.612-.468a8.162,8.162,0,0,0-1.152-1.4Zm-1.08.924a6.764,6.764,0,0,1,1.116,1.4l.6-.468a8.011,8.011,0,0,0-1.128-1.416ZM12.792-7.464V-6.2H14.9v2.88h1.38V-6.2h3.408v1.032c0,2.136-.684,3.612-3.348,4.74L17.268.7A5.87,5.87,0,0,0,21.1-5.232V-6.2h2.112v-1.26H21.1v-2.3h-1.4v2.3H16.284v-2.28H14.9v2.28ZM31.092-6a19.888,19.888,0,0,0,3.2-2.868L33.18-9.756A21.463,21.463,0,0,1,25-4.176l.744,1.26A22.918,22.918,0,0,0,29.6-4.968V.648h1.488ZM38.46-8.8l-.876,1.152a18.97,18.97,0,0,1,3.06,2.124l.936-1.164A26.078,26.078,0,0,0,38.46-8.8ZM37.884-.78,38.616.576a15.983,15.983,0,0,0,8.268-6.168L45.96-6.66A14.135,14.135,0,0,1,37.884-.78Z" transform="translate(30 716)" fill="#333"/></g><path d="M8.184-1.728,6.456-6.84H5L3.372-1.728,1.908-6.972H.312L2.556,0H4L5.748-5.184,7.524,0H8.952l2.256-6.972h-1.6Zm7.7.708A1.965,1.965,0,0,1,13.7-3.228h4.584v-.84c0-1.824-.768-3.144-2.7-3.144-2.184,0-3.324,1.668-3.324,3.816,0,2.052,1.008,3.6,3.516,3.6a6.01,6.01,0,0,0,2.412-.468l-.264-1.152a5.4,5.4,0,0,1-2.028.4ZM15.444-6.1c1.116,0,1.512.708,1.524,1.836H13.74A1.818,1.818,0,0,1,15.432-6.1ZM21.288,0l.18-.636a3.063,3.063,0,0,0,2,.8c2.2,0,2.94-1.752,2.94-3.8,0-2.208-.924-3.528-2.736-3.528a2.69,2.69,0,0,0-2.112,1V-9.744l-1.416.216V0Zm.228-3.852a5.351,5.351,0,0,1,.072-.948,1.977,1.977,0,0,1,1.8-1.14c1.14,0,1.56,1.02,1.56,2.34,0,1.488-.42,2.568-1.716,2.568a2.015,2.015,0,0,1-1.644-.828,5.96,5.96,0,0,1-.072-1.08ZM35.484-.408c-.456-.552-1.032-1.2-1.668-1.86A38.37,38.37,0,0,0,38.46-7.74l-1.1-.792H28.3V-7.2h7.932a26.522,26.522,0,0,1-3.4,3.948c-.756-.72-1.536-1.416-2.244-1.968l-1.008.912a27.781,27.781,0,0,1,4.7,4.836Zm4.764-4.86v1.452h9.816V-5.268ZM59.6-6.012h2.748V-7.32H56.04a14.475,14.475,0,0,0,.78-2.064l-1.344-.384a13.341,13.341,0,0,1-3.528,5.9l1.164.828a12.931,12.931,0,0,0,2.256-2.976h2.808A6.418,6.418,0,0,1,54.252-.288l1.1,1.032A8.033,8.033,0,0,0,59.6-6.012ZM72.4-6.1a13.8,13.8,0,0,0,1.632.816l.828-1.14a11.731,11.731,0,0,1-5.136-3.708H68.472A10.77,10.77,0,0,1,63.48-6.42l.768,1.128a11.086,11.086,0,0,0,1.716-.888v.708H72.4ZM66.66-6.648A13.03,13.03,0,0,0,69.084-8.94a14.056,14.056,0,0,0,2.484,2.292ZM64.1-.588l.288,1.3c2.016-.168,5.544-.456,7.92-.7a10.679,10.679,0,0,1,.636,1.008L74.112.312a17.357,17.357,0,0,0-2.928-3.4l-1.02.636c.492.48.948.96,1.344,1.428-1.284.1-2.808.192-4.224.276.48-.888.924-1.8,1.272-2.568h5.628V-4.488H64.116v1.176h3c-.312.78-.756,1.74-1.212,2.64C65.22-.636,64.608-.612,64.1-.588ZM78.732-3.552a17.893,17.893,0,0,1,1.2,1.56l.936-.876c-.42-.48-1.152-1.188-1.836-1.848a11.846,11.846,0,0,0,1.476-3.1l-.768-.324H78.732v-1.992H77.424v1.992H75.708v1.188h3.156a9.5,9.5,0,0,1-3.456,4.14l.756,1.056a9.286,9.286,0,0,0,1.26-1.032V1.008h1.308ZM79.824-.516V.7h6.9V-.516H84.036V-5.148h2.208V-6.36H84.036v-3.768H82.692V-6.36H80.508v1.212h2.184V-.516Z" transform="translate(495.422 576)" fill="#333"/><path d="M8.76-8.256A6.458,6.458,0,0,1,9.972-6.744l.7-.516a7.672,7.672,0,0,0-1.26-1.512Zm-1.512.672a7.8,7.8,0,0,1,1.212,1.5L9.144-6.6a8.435,8.435,0,0,0-1.26-1.5ZM.312-3.024l1.176.972C2.412-3.2,3.756-4.788,4.3-5.376c.276-.3.492-.444.72-.444s.432.144.7.456a57.914,57.914,0,0,0,4.968,5L11.712-1.5A35.3,35.3,0,0,1,6.24-6.888a1.581,1.581,0,0,0-1.212-.7,1.608,1.608,0,0,0-1.176.612C3.156-6.216,1.428-4.212.312-3.024ZM19.092-6a19.888,19.888,0,0,0,3.2-2.868L21.18-9.756A21.463,21.463,0,0,1,13-4.176l.744,1.26A22.918,22.918,0,0,0,17.6-4.968V.648h1.488Zm14.34-3.552a8.487,8.487,0,0,1,1.38,1.4l.636-.576a7.643,7.643,0,0,0-1.392-1.392ZM32.124-8.5A6.842,6.842,0,0,1,33.492-7.1l.648-.576a7.775,7.775,0,0,0-1.4-1.4Zm-4.86-.756-.66,1.14a20.424,20.424,0,0,1,3,1.452l.672-1.14A23.664,23.664,0,0,0,27.264-9.252ZM25.92-6.564l-.66,1.176a21.552,21.552,0,0,1,3.108,1.38l.648-1.164A22.85,22.85,0,0,0,25.92-6.564ZM25.884-.756,26.616.576a15.983,15.983,0,0,0,8.268-6.168L33.96-6.636A14.135,14.135,0,0,1,25.884-.756Z" transform="translate(684 576)"/><g transform="translate(0 -6)"><path d="M8.328-.408C7.872-.96,7.3-1.608,6.66-2.268A38.37,38.37,0,0,0,11.3-7.74l-1.1-.792H1.14V-7.2H9.072a26.522,26.522,0,0,1-3.4,3.948C4.92-3.972,4.14-4.668,3.432-5.22l-1.008.912A27.781,27.781,0,0,1,7.128.528ZM19.164-4.344a18.334,18.334,0,0,0,2.952-3.108l-.876-.7H18.684v-1.62h-1.44v1.62h-3.5V-6.84h6.1a15.617,15.617,0,0,1-6.8,4.584l.756,1.212A17.211,17.211,0,0,0,17.244-2.88V.648h1.44V-3.168A21.617,21.617,0,0,1,22.032-1.08l.936-1.044A27.46,27.46,0,0,0,19.164-4.344ZM33.432-9.552a8.487,8.487,0,0,1,1.38,1.4l.636-.576a7.643,7.643,0,0,0-1.392-1.392ZM32.124-8.5A6.842,6.842,0,0,1,33.492-7.1l.648-.576a7.775,7.775,0,0,0-1.4-1.4Zm-4.86-.756-.66,1.14a20.424,20.424,0,0,1,3,1.452l.672-1.14A23.664,23.664,0,0,0,27.264-9.252ZM25.92-6.564l-.66,1.176a21.552,21.552,0,0,1,3.108,1.38l.648-1.164A22.85,22.85,0,0,0,25.92-6.564ZM25.884-.756,26.616.576a15.983,15.983,0,0,0,8.268-6.168L33.96-6.636A14.135,14.135,0,0,1,25.884-.756Zm13.3-6.78L38.316-6.42A37.78,37.78,0,0,1,41.7-4.32,11.355,11.355,0,0,1,37.212-.552L38.244.6a13.114,13.114,0,0,0,4.608-4.1A31.44,31.44,0,0,1,45.588-1.32L46.6-2.448c-.78-.672-1.836-1.464-2.964-2.256A26.23,26.23,0,0,0,45.6-8.976l-1.416-.492a21.36,21.36,0,0,1-1.716,3.96C41.316-6.276,40.152-7,39.18-7.536ZM50.46-8.8l-.876,1.152a18.97,18.97,0,0,1,3.06,2.124l.936-1.164A26.078,26.078,0,0,0,50.46-8.8ZM49.884-.78,50.616.576a15.983,15.983,0,0,0,8.268-6.168L57.96-6.66A14.135,14.135,0,0,1,49.884-.78ZM62.82-6.48V-9.768H61.368V.648H62.82V-4.944a29.114,29.114,0,0,1,4.416,2.6l.924-1.176A39.716,39.716,0,0,0,62.82-6.48Z" transform="translate(30 796)" fill="#333"/><path d="M5.92-4.7,6.112,0h1.2l-.32-6.144H5.36L3.96-1.776,2.528-6.144H.952L.632,0H1.76l.168-4.7L3.392-.264H4.44ZM8,0H9.2l.52-1.48h2.24L12.5,0h1.312l-2.36-6.144h-1.1Zm2.016-2.4.848-2.44L11.7-2.4ZM15.68-4.8,18.208,0h1.36V-6.144h-1.12v4.336l-2.3-4.336H14.568V0H15.68Zm6.584-.312h2.248V-6.144H21.1V0h3.568V-1.032h-2.4V-2.64h1.96v-.984h-1.96Zm7.128,4.1a2.523,2.523,0,0,1-.648.08c-1.3,0-1.864-.712-1.864-2.056,0-1.424.576-2.224,1.832-2.224a3.574,3.574,0,0,1,1.168.192l.2-1.072a6.293,6.293,0,0,0-1.4-.176C26.216-6.264,25.6-4.648,25.6-3c0,1.616.648,3.1,3.1,3.1a5.648,5.648,0,0,0,1.8-.288v-3.3H28.28V-2.5h1.112Zm3.632-4.1h2.248V-6.144H31.856V0h3.568V-1.032h-2.4V-2.64h1.96v-.984h-1.96ZM41.76-4.7,41.952,0h1.2l-.32-6.144H41.2L39.8-1.776,38.368-6.144H36.792L36.472,0H37.6l.168-4.7L39.232-.264H40.28ZM43.84,0h1.2l.52-1.48H47.8L48.336,0h1.312l-2.36-6.144h-1.1Zm2.016-2.4L46.7-4.84l.832,2.44ZM51.52-4.8,54.048,0h1.36V-6.144h-1.12v4.336l-2.3-4.336H50.408V0H51.52ZM59.032,0V-5.112h1.632V-6.144H56.216v1.032H57.84V0Z" transform="translate(30 810)" fill="#aea772"/></g><g transform="translate(20 550)" fill="none" stroke="#aea772" stroke-width="1"><rect width="760" height="41" stroke="none"/><rect x="0.5" y="0.5" width="759" height="40" fill="none"/></g><g transform="translate(20 590)" fill="none" stroke="#aea772" stroke-width="1"><rect width="760" height="81" stroke="none"/><rect x="0.5" y="0.5" width="759" height="80" fill="none"/></g><g transform="translate(20 550)" fill="none" stroke="#aea772" stroke-width="1"><rect width="117" height="281" stroke="none"/><rect x="0.5" y="0.5" width="116" height="280" fill="none"/></g><g transform="translate(297 550)" fill="none" stroke="#aea772" stroke-width="1"><rect width="162" height="281" stroke="none"/><rect x="0.5" y="0.5" width="161" height="280" fill="none"/></g><g transform="translate(619 550)" fill="none" stroke="#aea772" stroke-width="1"><rect width="161" height="281" stroke="none"/><rect x="0.5" y="0.5" width="160" height="280" fill="none"/></g><g transform="translate(20 670)" fill="none" stroke="#aea772" stroke-width="1"><rect width="760" height="81" stroke="none"/><rect x="0.5" y="0.5" width="759" height="80" fill="none"/></g><g transform="translate(20 750)" fill="none" stroke="#aea772" stroke-width="1"><rect width="760" height="81" stroke="none"/><rect x="0.5" y="0.5" width="759" height="80" fill="none"/></g><g transform="translate(205 699)" fill="none" stroke="#000" stroke-width="2"><circle cx="12" cy="12" r="12" stroke="none"/><circle cx="12" cy="12" r="11" fill="none"/></g><g transform="translate(527 619)" fill="none" stroke="#000" stroke-width="2"><circle cx="12" cy="12" r="12" stroke="none"/><circle cx="12" cy="12" r="11" fill="none"/></g><g transform="translate(690 619)" fill="none" stroke="#000" stroke-width="2"><circle cx="12" cy="12" r="12" stroke="none"/><circle cx="12" cy="12" r="11" fill="none"/></g><g transform="translate(690 699)" fill="none" stroke="#000" stroke-width="2"><circle cx="12" cy="12" r="12" stroke="none"/><circle cx="12" cy="12" r="11" fill="none"/></g><g transform="translate(690 779)" fill="none" stroke="#000" stroke-width="2"><circle cx="12" cy="12" r="12" stroke="none"/><circle cx="12" cy="12" r="11" fill="none"/></g><g transform="translate(2.5 0.5)"><line x2="18" y2="18" transform="translate(205.5 621.5)" fill="none" stroke="#000" stroke-width="2"/><line x2="18" y2="18" transform="translate(223.5 621.5) rotate(90)" fill="none" stroke="#000" stroke-width="2"/></g><g transform="translate(324.5 80.5)"><line x2="18" y2="18" transform="translate(205.5 621.5)" fill="none" stroke="#000" stroke-width="2"/><line x2="18" y2="18" transform="translate(223.5 621.5) rotate(90)" fill="none" stroke="#000" stroke-width="2"/></g><g transform="translate(163.5 160.5)"><line x2="18" y2="18" transform="translate(205.5 621.5)" fill="none" stroke="#000" stroke-width="2"/><line x2="18" y2="18" transform="translate(223.5 621.5) rotate(90)" fill="none" stroke="#000" stroke-width="2"/></g><g transform="translate(324.5 160.5)"><line x2="18" y2="18" transform="translate(205.5 621.5)" fill="none" stroke="#000" stroke-width="2"/><line x2="18" y2="18" transform="translate(223.5 621.5) rotate(90)" fill="none" stroke="#000" stroke-width="2"/></g><g transform="translate(1 -3.353)"><path d="M204,804.353l12-20,12,20Z" fill="none" stroke="#000" stroke-width="2"/><path d="M224.468,802.353,216,788.24l-8.468,14.113h16.936m3.532,2H204l12-20Z" fill="none"/></g><g transform="translate(162 -163.353)"><path d="M204,804.353l12-20,12,20Z" fill="none" stroke="#000" stroke-width="2"/><path d="M224.468,802.353,216,788.24l-8.468,14.113h16.936m3.532,2H204l12-20Z" fill="none"/></g><g transform="translate(162 -83.353)"><path d="M204,804.353l12-20,12,20Z" fill="none" stroke="#000" stroke-width="2"/><path d="M224.468,802.353,216,788.24l-8.468,14.113h16.936m3.532,2H204l12-20Z" fill="none"/></g></g></svg>