<?xml version="1.0" encoding="UTF-8" standalone="no"?>
<svg
   xmlns:dc="http://purl.org/dc/elements/1.1/"
   xmlns:cc="http://creativecommons.org/ns#"
   xmlns:rdf="http://www.w3.org/1999/02/22-rdf-syntax-ns#"
   xmlns:svg="http://www.w3.org/2000/svg"
   xmlns="http://www.w3.org/2000/svg"
   xmlns:sodipodi="http://sodipodi.sourceforge.net/DTD/sodipodi-0.dtd"
   xmlns:inkscape="http://www.inkscape.org/namespaces/inkscape"
   width="600"
   height="481"
   viewBox="0 0 600 481"
   version="1.1"
   id="svg94"
   sodipodi:docname="img_index_03.svg"
   inkscape:version="0.92.4 (5da689c313, 2019-01-14)">
  <metadata
     id="metadata100">
    <rdf:RDF>
      <cc:Work
         rdf:about="">
        <dc:format>image/svg+xml</dc:format>
        <dc:type
           rdf:resource="http://purl.org/dc/dcmitype/StillImage" />
      </cc:Work>
    </rdf:RDF>
  </metadata>
  <defs
     id="defs98" />
  <sodipodi:namedview
     pagecolor="#ffffff"
     bordercolor="#666666"
     borderopacity="1"
     objecttolerance="10"
     gridtolerance="10"
     guidetolerance="10"
     inkscape:pageopacity="0"
     inkscape:pageshadow="2"
     inkscape:window-width="2560"
     inkscape:window-height="1417"
     id="namedview96"
     showgrid="false"
     inkscape:zoom="2.7755044"
     inkscape:cx="438.00295"
     inkscape:cy="310.22943"
     inkscape:window-x="3832"
     inkscape:window-y="-8"
     inkscape:window-maximized="1"
     inkscape:current-layer="g74" />
  <g
     transform="translate(-100 -895)"
     id="g92">
    <rect
       width="240"
       height="80"
       transform="translate(100 895)"
       fill="#f7f6f1"
       id="rect2" />
    <rect
       width="240"
       height="80"
       transform="translate(460 895)"
       fill="#f7f6f1"
       id="rect4" />
    <g
       transform="translate(100 895)"
       fill="none"
       stroke="#aea772"
       stroke-width="1"
       id="g10">
      <rect
         width="240"
         height="401"
         stroke="none"
         id="rect6" />
      <rect
         x="0.5"
         y="0.5"
         width="239"
         height="400"
         fill="none"
         id="rect8" />
    </g>
    <g
       transform="translate(100 1336)"
       fill="none"
       stroke="#aea772"
       stroke-width="1"
       id="g16">
      <rect
         width="600"
         height="40"
         stroke="none"
         id="rect12" />
      <rect
         x="0.5"
         y="0.5"
         width="599"
         height="39"
         fill="none"
         id="rect14" />
    </g>
    <g
       transform="translate(460 895)"
       fill="none"
       stroke="#aea772"
       stroke-width="1"
       id="g22">
      <rect
         width="240"
         height="401"
         stroke="none"
         id="rect18" />
      <rect
         x="0.5"
         y="0.5"
         width="239"
         height="400"
         fill="none"
         id="rect20" />
    </g>
    <path
       d="M204,792.353l4.5-8,4.5,8Z"
       transform="translate(12 511.647)"
       fill="#aea772"
       id="path24" />
    <path
       d="M204,792.353l4.5-8,4.5,8Z"
       transform="translate(372 511.647)"
       fill="#aea772"
       id="path26" />
    <path
       d="M5.016-6.4V-9.72h-1.1V.6h1.1V-5.232A32.545,32.545,0,0,1,9.78-2.484l.7-.888A43.077,43.077,0,0,0,5.016-6.4Zm11.724.288a11.291,11.291,0,0,1,.984,2.52l.852-.348a13.871,13.871,0,0,0-1.008-2.508Zm3.852-.084a7.126,7.126,0,0,1-4.536,5.94l.612.828a8.436,8.436,0,0,0,4.9-6.564Zm-6.144.612a10.551,10.551,0,0,1,1.1,2.448l.84-.348a12.25,12.25,0,0,0-1.116-2.472ZM35.964-9.288a1.234,1.234,0,0,0-1.236-1.236A1.224,1.224,0,0,0,33.5-9.288a1.224,1.224,0,0,0,1.224,1.236,1.232,1.232,0,0,0,1.236-1.224Zm-2.076,0a.861.861,0,0,1,.84-.852.863.863,0,0,1,.852.852.863.863,0,0,1-.852.852.858.858,0,0,1-.84-.84ZM25.62-8.22v1.008h7.392A9.3,9.3,0,0,1,26.964-.3l.744.876c3.768-1.632,5.724-4.512,6.588-8.34l-.84-.456ZM39.768-4.908a19.763,19.763,0,0,1,2.832,1.9A9.233,9.233,0,0,1,38.688-.228l.72.888C42.912-.756,45.18-4.032,46.02-7.9l-.744-.42H41.412c.2-.384.372-.744.516-1.092l-1.02-.348A13.247,13.247,0,0,1,36.9-4.38l.8.684A14.681,14.681,0,0,0,40.86-7.368h3.852a9.7,9.7,0,0,1-1.476,3.516A27.641,27.641,0,0,0,40.428-5.7ZM50.88-9.2V-.048l.828.5A14.872,14.872,0,0,0,58.572-4.26l-.528-1.032A12.609,12.609,0,0,1,52-.924V-9.2Zm11.484.528-.672.864a19.674,19.674,0,0,1,3.1,2.16l.708-.876A27.8,27.8,0,0,0,62.364-8.676ZM61.98-.516,62.52.516a15.7,15.7,0,0,0,8.292-6.2l-.7-.816A14.282,14.282,0,0,1,61.98-.516ZM77.016-6.4V-9.72h-1.1V.6h1.1V-5.232A32.545,32.545,0,0,1,81.78-2.484l.7-.888A43.076,43.076,0,0,0,77.016-6.4Z"
       transform="translate(178 1013)"
       fill="#333"
       id="path28" />
    <path
       d="M7.9-8.508l-1.008.456A29.244,29.244,0,0,1,10.164-.144L11.28-.492A35.966,35.966,0,0,0,7.9-8.508Zm-4.284.276A17.836,17.836,0,0,1,.54-.468L1.548.084A20.618,20.618,0,0,0,4.7-8.028ZM18.9-6.072a19.494,19.494,0,0,0,3.288-2.952L21.336-9.7a21.716,21.716,0,0,1-8.244,5.688l.564.96A23.82,23.82,0,0,0,17.784-5.28V.6H18.9ZM30-3.648a.912.912,0,0,0,.912-.912A.912.912,0,0,0,30-5.472a.912.912,0,0,0-.912.912.909.909,0,0,0,.9.912ZM37.152-1.26V-.24H46.86V-1.26H42.5V-7.068H45.96v-1H38.052v1h3.336V-1.26Zm11.94-2.16.168.972,4.524-.588L54.36.672,55.44.5,54.864-3.18l4.152-.552-.144-.96-4.152.54-.4-2.472,3.54-.456-.144-.96-3.54.456-.348-2.184-1.08.132.336,2.184-3.732.48L49.512-6l3.732-.48.384,2.472ZM67.1-3.8A14.656,14.656,0,0,0,69.36-8.112L68.6-8.544H62.04v.972h5.928a13.289,13.289,0,0,1-6.7,7.284l.7.876A15.046,15.046,0,0,0,66.468-3,25,25,0,0,1,69.924.6l.96-.672A37.07,37.07,0,0,0,67.1-3.8ZM83.58-8.664a1.316,1.316,0,0,0-1.32-1.32,1.316,1.316,0,0,0-1.32,1.32,1.324,1.324,0,0,0,1.32,1.32,1.321,1.321,0,0,0,1.32-1.308Zm-2.244,0A.935.935,0,0,1,82.26-9.6a.945.945,0,0,1,.936.936.943.943,0,0,1-.936.924.93.93,0,0,1-.924-.912Zm-1.38.276-1.008.444A28.824,28.824,0,0,1,82.164-.132L83.28-.48A35.24,35.24,0,0,0,79.956-8.388Zm-4.38.252A17.665,17.665,0,0,1,72.54-.468l1.008.552a20.609,20.609,0,0,0,3.12-7.992Zm9.54,3.048v1.1h9.768v-1.1Zm15.9-1.308V-9.72h-1.1V.6h1.1V-5.232a32.545,32.545,0,0,1,4.764,2.748l.7-.888A43.076,43.076,0,0,0,101.016-6.4Z"
       transform="translate(166 1077)"
       fill="#333"
       id="path30" />
    <path
       d="M1.152-1.26V-.24H10.86V-1.26H6.5V-7.068H9.96v-1H2.052v1H5.388V-1.26Zm11.94-2.16.168.972,4.524-.588L18.36.672,19.44.5,18.864-3.18l4.152-.552-.144-.96-4.152.54-.4-2.472,3.54-.456-.144-.96-3.54.456-.348-2.184-1.08.132.336,2.184-3.732.48L13.512-6l3.732-.48.384,2.472ZM31.1-3.8A14.655,14.655,0,0,0,33.36-8.112L32.6-8.544H26.04v.972h5.928a13.289,13.289,0,0,1-6.7,7.284l.7.876A15.046,15.046,0,0,0,30.468-3,25,25,0,0,1,33.924.6l.96-.672A37.07,37.07,0,0,0,31.1-3.8ZM47.58-8.664a1.316,1.316,0,0,0-1.32-1.32,1.316,1.316,0,0,0-1.32,1.32,1.324,1.324,0,0,0,1.32,1.32,1.321,1.321,0,0,0,1.32-1.308Zm-2.244,0A.935.935,0,0,1,46.26-9.6a.945.945,0,0,1,.936.936.943.943,0,0,1-.936.924.93.93,0,0,1-.924-.912Zm-1.38.276-1.008.444A28.824,28.824,0,0,1,46.164-.132L47.28-.48A35.24,35.24,0,0,0,43.956-8.388Zm-4.38.252A17.665,17.665,0,0,1,36.54-.468l1.008.552a20.609,20.609,0,0,0,3.12-7.992Zm9.54,3.048v1.1h9.768v-1.1ZM65.016-6.4V-9.72h-1.1V.6h1.1V-5.232A32.545,32.545,0,0,1,69.78-2.484l.7-.888A43.076,43.076,0,0,0,65.016-6.4Z"
       transform="translate(184 1141)"
       fill="#333"
       id="path32" />
    <path
       d="M1.3-8.808v1H9.432A19.291,19.291,0,0,1,6.972-4.86l.9.588a33.676,33.676,0,0,0,3.156-3.972l-.816-.564Zm3.9,1.98c0,3.456-.216,5.076-2.988,6.66L3.036.6c2.916-1.824,3.24-3.78,3.24-7.428ZM15.144-9.12l-.5.864a20.8,20.8,0,0,1,3.072,1.464l.5-.852A21.7,21.7,0,0,0,15.144-9.12ZM13.812-6.432l-.48.888a21.6,21.6,0,0,1,3.144,1.392l.5-.876A21.464,21.464,0,0,0,13.812-6.432ZM13.98-.5l.54,1.02a15.7,15.7,0,0,0,8.292-6.2l-.7-.792A14.316,14.316,0,0,1,13.98-.5ZM31.1-3.8A14.655,14.655,0,0,0,33.36-8.112L32.6-8.544H26.04v.972h5.928a13.289,13.289,0,0,1-6.7,7.284l.7.876A15.046,15.046,0,0,0,30.468-3,25,25,0,0,1,33.924.6l.96-.672A37.07,37.07,0,0,0,31.1-3.8Zm8.664-1.1a19.763,19.763,0,0,1,2.832,1.9A9.233,9.233,0,0,1,38.688-.228l.72.888C42.912-.756,45.18-4.032,46.02-7.9l-.744-.42H41.412c.2-.384.372-.744.516-1.092l-1.02-.348A13.247,13.247,0,0,1,36.9-4.38l.8.684A14.681,14.681,0,0,0,40.86-7.368h3.852a9.7,9.7,0,0,1-1.476,3.516A27.641,27.641,0,0,0,40.428-5.7Zm10.6-3.768-.672.864a19.674,19.674,0,0,1,3.1,2.16l.708-.876A27.8,27.8,0,0,0,50.364-8.676ZM49.98-.516,50.52.516a15.7,15.7,0,0,0,8.292-6.2l-.7-.816A14.282,14.282,0,0,1,49.98-.516ZM63.816-6.4V-9.72h-1.1V.6h1.1V-5.232A32.545,32.545,0,0,1,68.58-2.484l.7-.888A43.077,43.077,0,0,0,63.816-6.4Z"
       transform="translate(184.6 1269)"
       fill="#333"
       id="path34" />
    <path
       d="M1.716-8.2V-.144h8.568V-8.2ZM2.8-1.176V-7.188H9.18v6.012ZM13.848-7.644v3.756h1.08v-2.76h6.408A6.652,6.652,0,0,1,16.344-.312L17,.624c3.84-1.392,5.28-4.236,5.58-7.9l-.912-.372H18.528V-9.72H17.436v2.076ZM30-3.648a.912.912,0,0,0,.912-.912A.912.912,0,0,0,30-5.472a.912.912,0,0,0-.912.912.909.909,0,0,0,.9.912ZM37.152-1.26V-.24H46.86V-1.26H42.5V-7.068H45.96v-1H38.052v1h3.336V-1.26Zm11.94-2.16.168.972,4.524-.588L54.36.672,55.44.5,54.864-3.18l4.152-.552-.144-.96-4.152.54-.4-2.472,3.54-.456-.144-.96-3.54.456-.348-2.184-1.08.132.336,2.184-3.732.48L49.512-6l3.732-.48.384,2.472ZM67.1-3.8A14.656,14.656,0,0,0,69.36-8.112L68.6-8.544H62.04v.972h5.928a13.289,13.289,0,0,1-6.7,7.284l.7.876A15.046,15.046,0,0,0,66.468-3,25,25,0,0,1,69.924.6l.96-.672A37.07,37.07,0,0,0,67.1-3.8ZM83.58-8.664a1.316,1.316,0,0,0-1.32-1.32,1.316,1.316,0,0,0-1.32,1.32,1.324,1.324,0,0,0,1.32,1.32,1.321,1.321,0,0,0,1.32-1.308Zm-2.244,0A.935.935,0,0,1,82.26-9.6a.945.945,0,0,1,.936.936.943.943,0,0,1-.936.924.93.93,0,0,1-.924-.912Zm-1.38.276-1.008.444A28.824,28.824,0,0,1,82.164-.132L83.28-.48A35.24,35.24,0,0,0,79.956-8.388Zm-4.38.252A17.665,17.665,0,0,1,72.54-.468l1.008.552a20.609,20.609,0,0,0,3.12-7.992Zm9.54,3.048v1.1h9.768v-1.1Zm15.9-1.308V-9.72h-1.1V.6h1.1V-5.232a32.545,32.545,0,0,1,4.764,2.748l.7-.888A43.076,43.076,0,0,0,101.016-6.4Z"
       transform="translate(166 1205)"
       fill="#333"
       id="path36" />
    <path
       d="M7-4.32h4.44v-.912H6.48V-7.284h4.032v-.924H6.48V-10.08H5.448v1.872H1.476v.924H5.448v2.052H.576v.912H5A11.343,11.343,0,0,1,.42-.456l.7.816A13,13,0,0,0,5.448-3.4V.96H6.48V-3.516A12.743,12.743,0,0,0,10.836.324l.744-.876A11.3,11.3,0,0,1,7-4.32Zm11.748-4.5-.852.348a7.46,7.46,0,0,0,1.656,2.1,10.476,10.476,0,0,1-2.616,1.2l.624.732a10.85,10.85,0,0,0,2.712-1.368,10.475,10.475,0,0,0,2.808,1.356l.612-.828a9.816,9.816,0,0,1-2.652-1.128A7.021,7.021,0,0,0,23.1-9.492l-.7-.228H17.352v.852h4.464A6,6,0,0,1,20.3-6.936,6.212,6.212,0,0,1,18.744-8.82ZM15.48-4c.324-.036.636-.072.912-.108.084.2.156.384.216.564l.756-.384a9.22,9.22,0,0,0-1.284-2.3l-.72.372a11.5,11.5,0,0,1,.672,1.02c-.564.048-1.212.1-1.824.144A41.966,41.966,0,0,0,16.992-8.58l-.864-.4a22.681,22.681,0,0,1-1.452,2.292c-.192-.24-.42-.5-.672-.768A21.331,21.331,0,0,0,15.468-9.72l-.84-.36a15.258,15.258,0,0,1-1.2,2.04c-.132-.12-.264-.24-.408-.36l-.516.648A11.389,11.389,0,0,1,14.16-5.964c-.324.456-.672.912-1.02,1.344-.288.024-.552.048-.768.06l.18.888c.516-.06,1.236-.132,1.968-.216V.96h.96Zm.5.972a10.845,10.845,0,0,1,.6,2.34L17.4-.9a11.12,11.12,0,0,0-.636-2.34C16.548-3.18,16.32-3.12,15.984-3.024Zm-2.82-.132A9.838,9.838,0,0,1,12.4-.168l.8.288a11.491,11.491,0,0,0,.792-3.144ZM16.92-.228V.66h6.6V-.228H20.784v-2.28H22.9V-3.4H20.784V-5.052H19.8V-3.4H17.724v.888H19.8v2.28Zm8.916-7.764v-.924h1.056v.924Zm0,1.668V-7.26h1.056v.936Zm0,1.68V-5.6h1.056v.96Zm1.632,1.4A5.63,5.63,0,0,1,28.092-1.6l.276-.072A4.2,4.2,0,0,1,28.1.048a.291.291,0,0,1-.216.06c-.216.012-.648,0-.924-.012l.1.78c.3.012.84.012,1.08.012A1.1,1.1,0,0,0,28.764.72c.372-.276.492-2.028.6-5.364H27.756V-5.6h1.26v-.72h-1.26V-7.26h1.26v-.732h-1.26v-.924H29.34v-.828H24.948V-3.8h3.516c-.012.624-.036,1.176-.06,1.644a6.809,6.809,0,0,0-.564-1.224ZM30.852-7.4a9.516,9.516,0,0,0,1.6-1.752A10.731,10.731,0,0,0,34.128-7.4Zm2.1,4.14v-1.7H34.32v1.7Zm-2.22-1.7h1.284v1.7H30.732ZM33.1-2.544H35.22V-5.7H32.952v-.924h1.524V-7.14c.264.2.528.384.792.552l.48-.888a9.306,9.306,0,0,1-2.9-2.592h-.78a8.175,8.175,0,0,1-2.82,2.6l.456.876a6.968,6.968,0,0,0,.816-.552v.516h1.5V-5.7h-2.16v3.156h2.112c-.192,1.092-.912,1.992-2.6,2.736l.576.756a5.179,5.179,0,0,0,2.652-2.4A4.454,4.454,0,0,0,35.04.96l.6-.816A3.951,3.951,0,0,1,33.1-2.544ZM26.664-3.06A7.826,7.826,0,0,1,27.1-1.044l.456-.072A8.078,8.078,0,0,0,27.06-3.18Zm-.864.084a10.215,10.215,0,0,1,.132,2.352l.5-.024a11.016,11.016,0,0,0-.192-2.4Zm-.828-.084A7.436,7.436,0,0,1,24.36-.408l.552.276a9.241,9.241,0,0,0,.636-2.8Zm15.12.648V-3.624h4.644v1.212ZM44.736.516V.96h1.008V-4.488h-4.1a18.43,18.43,0,0,0,1.7-1.044H47.52V-6.4H44.46a13.274,13.274,0,0,0,2.472-2.652l-.816-.432A12.707,12.707,0,0,1,43.044-6.4H41.976V-7.764h2.64v-.852h-2.64V-10.08h-1v1.464H37.872v.852H40.98V-6.4h-4.5v.864h5.244a22.666,22.666,0,0,1-5.388,2.16c.192.228.372.456.66.78.72-.216,1.428-.456,2.1-.72V.96h1V.516ZM40.092-.336V-1.608h4.644V-.336Z"
       transform="translate(376 1361)"
       fill="#333"
       id="path38" />
    <path
       d="M1.152-1.26V-.24H10.86V-1.26H6.5V-7.068H9.96v-1H2.052v1H5.388V-1.26Zm21-8.76A8.5,8.5,0,0,1,23.3-8.364l.528-.384A8.514,8.514,0,0,0,22.644-10.4Zm-1.476.564a7.649,7.649,0,0,1,1.152,1.668l.528-.384A8.538,8.538,0,0,0,21.18-9.84Zm-3.408,1.6a13.833,13.833,0,0,0,.768-1.512l-1.008-.36a14.214,14.214,0,0,1-4.044,5.424l.816.672a14.631,14.631,0,0,0,2.88-3.276h3.96a8.938,8.938,0,0,1-5.9,6.684l.708.876c3.6-1.5,5.6-4.176,6.516-8.136l-.78-.372Zm16.7-2.028a7.451,7.451,0,0,1,1.212,1.512l.48-.372a9.027,9.027,0,0,0-1.236-1.524ZM29.94-.624C29-.708,28.752-1.092,28.752-1.956V-5.5L33.3-6.12a24.788,24.788,0,0,1-1.944,2.868l.912.468a43.146,43.146,0,0,0,2.556-3.924l-.78-.492-5.292.72V-9.7H27.7v3.348l-2.868.384.144.972,2.724-.36V-1.74A1.808,1.808,0,0,0,29.508.348c.564.048,1.368.06,2.172.06.9,0,1.9-.048,2.676-.1V-.756a26.647,26.647,0,0,1-3.072.18C30.768-.576,30.264-.6,29.94-.624Zm2.784-8.508a7.912,7.912,0,0,1,1.2,1.524l.48-.372A8.4,8.4,0,0,0,33.18-9.516ZM41.268-7.86a13.833,13.833,0,0,0,.768-1.512l-1.008-.36a14.214,14.214,0,0,1-4.044,5.424l.816.672a14.631,14.631,0,0,0,2.88-3.276h3.96a8.938,8.938,0,0,1-5.9,6.684l.708.876c3.6-1.5,5.6-4.176,6.516-8.136l-.78-.372ZM50.4-8.868v.96h7.188v-.96ZM54.888-5h4.044v-.96H49.056V-5h4.752c-.06,2.352-.612,3.648-3.12,4.812l.8.84C54.156-.744,54.816-2.424,54.888-5Zm11.892.48a15.374,15.374,0,0,0,2.544-2.292L68.58-7.4a16.481,16.481,0,0,1-6.408,4.416l.5.8A18.394,18.394,0,0,0,65.8-3.84V.6h.984Zm15.984-6.012-.528.36a7.3,7.3,0,0,1,1.188,1.632l.552-.348A8.318,8.318,0,0,0,82.764-10.536ZM81.4-10.02l-.54.36a8.063,8.063,0,0,1,1.2,1.632l.552-.348A8.318,8.318,0,0,0,81.4-10.02ZM73.632-8.256v1.008h7.392A9.351,9.351,0,0,1,74.976-.3l.744.876c3.768-1.632,5.724-4.548,6.588-8.376l-.84-.456Z"
       transform="translate(538 1013)"
       fill="#333"
       id="path40" />
    <path
       d="M8.244-9.408v4.44c0,2.124-.96,3.672-3.564,4.656L5.388.6c2.736-1.14,3.96-3,3.96-5.544V-9.408ZM2.6-9.24v5.7h1.08v-5.7ZM13.116-5.088v1.1h9.768v-1.1Zm21.012-5.028A7.4,7.4,0,0,1,35.34-8.484l.564-.372a8.286,8.286,0,0,0-1.248-1.632Zm-1.548.372a8.1,8.1,0,0,1,1.236,1.6l.54-.384A9.2,9.2,0,0,0,33.1-10.14Zm-4.872,4.86A20.562,20.562,0,0,1,30.54-2.976a9.4,9.4,0,0,1-3.924,2.76l.732.888c3.5-1.416,5.772-4.656,6.612-8.52l-.768-.42H29.328c.2-.4.384-.768.528-1.128l-1.008-.348A13.466,13.466,0,0,1,24.84-4.368l.8.684A14.88,14.88,0,0,0,28.776-7.32h3.876a9.854,9.854,0,0,1-1.476,3.5,27.124,27.124,0,0,0-2.82-1.848Zm9.408-.2v1.1h9.768v-1.1Z"
       transform="translate(556 1141)"
       fill="#333"
       id="path42" />
    <path
       d="M8.22-.24c-.48-.588-1.116-1.284-1.812-2a37.978,37.978,0,0,0,4.764-5.592l-.852-.6H1.164v1.008H9.492a29.037,29.037,0,0,1-3.828,4.44A27.985,27.985,0,0,0,3.276-5.112l-.756.7A30.492,30.492,0,0,1,7.308.456ZM18.888-4.284a17.966,17.966,0,0,0,3.12-3.252l-.684-.54H18.516V-9.72H17.424v1.644H13.776v1.008h6.5a16.608,16.608,0,0,1-7.14,4.98l.576.924A18.166,18.166,0,0,0,17.424-3.18V.6h1.092v-4a22.01,22.01,0,0,1,3.612,2.2l.72-.792A28.415,28.415,0,0,0,18.888-4.284Zm6.228-.8v1.1h9.768v-1.1ZM45.468-9.6a8.4,8.4,0,0,1,1.44,1.476l.5-.456a8.452,8.452,0,0,0-1.464-1.464Zm-1.284.972a8.394,8.394,0,0,1,1.44,1.476l.5-.456a8.893,8.893,0,0,0-1.464-1.464Zm-5.04-.492-.5.864a20.8,20.8,0,0,1,3.072,1.464l.5-.852A21.7,21.7,0,0,0,39.144-9.12ZM37.812-6.432l-.48.888a21.6,21.6,0,0,1,3.144,1.392l.5-.876A21.464,21.464,0,0,0,37.812-6.432ZM37.98-.5l.54,1.02a15.7,15.7,0,0,0,8.292-6.2l-.7-.792A14.316,14.316,0,0,1,37.98-.5Zm11.94-4,.192.912,2.364-.468L53.52.66l.96-.228-1.044-4.68,3.252-.636A12.552,12.552,0,0,1,55.416-2.64l.816.42a22.317,22.317,0,0,0,1.716-3.252L57.18-5.94l-3.948.78-.516-2.3-.96.216.516,2.28Zm11.2-.588v1.1h9.768v-1.1Z"
       transform="translate(544 1077)"
       fill="#333"
       id="path44" />
    <path
       d="M7.1-3.8A14.655,14.655,0,0,0,9.36-8.112L8.6-8.544H2.04v.972H7.968a13.289,13.289,0,0,1-6.7,7.284l.7.876A15.046,15.046,0,0,0,6.468-3,25,25,0,0,1,9.924.6l.96-.672A37.07,37.07,0,0,0,7.1-3.8Zm8.664-1.1a19.763,19.763,0,0,1,2.832,1.9A9.233,9.233,0,0,1,14.688-.228l.72.888C18.912-.756,21.18-4.032,22.02-7.9l-.744-.42H17.412c.2-.384.372-.744.516-1.092l-1.02-.348A13.247,13.247,0,0,1,12.9-4.38l.8.684A14.681,14.681,0,0,0,16.86-7.368h3.852a9.7,9.7,0,0,1-1.476,3.516A27.641,27.641,0,0,0,16.428-5.7Zm12.972-1.2a11.291,11.291,0,0,1,.984,2.52l.852-.348a13.871,13.871,0,0,0-1.008-2.508Zm3.852-.084a7.126,7.126,0,0,1-4.536,5.94l.612.828a8.436,8.436,0,0,0,4.9-6.564Zm-6.144.612a10.551,10.551,0,0,1,1.1,2.448l.84-.348a12.25,12.25,0,0,0-1.116-2.472ZM37.632-8.316v1.008h7.392A9.411,9.411,0,0,1,38.976-.3l.744.876c3.768-1.632,5.724-4.608,6.588-8.436l-.84-.456Z"
       transform="translate(556 1205)"
       fill="#333"
       id="path46" />
    <path
       d="M1.3-8.808v1H9.432A19.291,19.291,0,0,1,6.972-4.86l.9.588a33.676,33.676,0,0,0,3.156-3.972l-.816-.564Zm3.9,1.98c0,3.456-.216,5.076-2.988,6.66L3.036.6c2.916-1.824,3.24-3.78,3.24-7.428ZM15.144-9.12l-.5.864a20.8,20.8,0,0,1,3.072,1.464l.5-.852A21.7,21.7,0,0,0,15.144-9.12ZM13.812-6.432l-.48.888a21.6,21.6,0,0,1,3.144,1.392l.5-.876A21.464,21.464,0,0,0,13.812-6.432ZM13.98-.5l.54,1.02a15.7,15.7,0,0,0,8.292-6.2l-.7-.792A14.316,14.316,0,0,1,13.98-.5ZM31.1-3.8A14.655,14.655,0,0,0,33.36-8.112L32.6-8.544H26.04v.972h5.928a13.289,13.289,0,0,1-6.7,7.284l.7.876A15.046,15.046,0,0,0,30.468-3,25,25,0,0,1,33.924.6l.96-.672A37.07,37.07,0,0,0,31.1-3.8Zm8.664-1.1a19.763,19.763,0,0,1,2.832,1.9A9.233,9.233,0,0,1,38.688-.228l.72.888C42.912-.756,45.18-4.032,46.02-7.9l-.744-.42H41.412c.2-.384.372-.744.516-1.092l-1.02-.348A13.247,13.247,0,0,1,36.9-4.38l.8.684A14.681,14.681,0,0,0,40.86-7.368h3.852a9.7,9.7,0,0,1-1.476,3.516A27.641,27.641,0,0,0,40.428-5.7Zm10.6-3.768-.672.864a19.674,19.674,0,0,1,3.1,2.16l.708-.876A27.8,27.8,0,0,0,50.364-8.676ZM49.98-.516,50.52.516a15.7,15.7,0,0,0,8.292-6.2l-.7-.816A14.282,14.282,0,0,1,49.98-.516ZM65.016-6.4V-9.72h-1.1V.6h1.1V-5.232A32.545,32.545,0,0,1,69.78-2.484l.7-.888A43.076,43.076,0,0,0,65.016-6.4Z"
       transform="translate(544 1269)"
       fill="#333"
       id="path48" />
    <g
       transform="translate(0 12)"
       id="g54">
      <path
         d="M10.458-1.568a9.491,9.491,0,0,0,2.492-4.69l-1.106-.28H10.122V-8.274H13.5V-9.7H10.122v-2.114H8.568V-9.7H5.544v1.428H8.568v1.736H5.74v1.4H7.35l-1.19.406a9.849,9.849,0,0,0,2,3.178A11.069,11.069,0,0,1,4.662-.1l.994,1.274A12.355,12.355,0,0,0,9.268-.56a10.749,10.749,0,0,0,3.388,1.722L13.664-.21A9.683,9.683,0,0,1,10.458-1.568ZM7.574-5.138h3.458a7.024,7.024,0,0,1-1.708,2.66A7.658,7.658,0,0,1,7.574-5.138Zm-7.182.42.336,1.54c.462-.14,1.064-.322,1.694-.532V-.728c0,.266-.07.406-.35.42-.21.014-.784.014-1.232-.014,0,.028,0,.056.294,1.484a10.822,10.822,0,0,0,1.694-.028c.854-.14,1.106-.672,1.106-1.6V-4.214c.532-.168,1.022-.35,1.456-.49L5.264-6.048c-.392.126-.854.252-1.33.392V-7.9H5.25V-9.31H3.934v-2.506H2.422V-9.31H.588V-7.9H2.422V-5.25C1.638-5.04.91-4.844.392-4.718ZM27.286-9.772V-11.13H23.842v1.358Zm-3.556-.14a7.106,7.106,0,0,0-.924-1.75l-1.064.5a7.082,7.082,0,0,1,.882,1.75Zm2.66,9.73V-6.454h1.092V-7.812H23.534v1.358h1.4V-.49a.247.247,0,0,1-.266.28,9.188,9.188,0,0,1-1.05-.014l.266,1.386a9.715,9.715,0,0,0,1.624-.042C26.166,1.008,26.39.574,26.39-.182ZM23.828-1.5a34.312,34.312,0,0,0-.7-5.18l-1.19.35A31.938,31.938,0,0,1,22.6-1.134ZM18.1-11.424l-1.386-.406a11.015,11.015,0,0,1-2.268,2.912l.98.966A14.609,14.609,0,0,0,18.1-11.424Zm1.624,5.11-1.232-.238A21.426,21.426,0,0,1,17.71-1.12L18.9-.6A24.071,24.071,0,0,0,19.726-6.314Zm-2.31,7.49V-6.678a13.081,13.081,0,0,0,.9-1.764v.588H20.16v9.03h1.414v-9.03H23.38V-9.212H21.574v-2.6H20.16v2.6H18.312v.672L16.94-8.918a11.846,11.846,0,0,1-2.618,3.962L15.05-3.64a13.31,13.31,0,0,0,.938-1.036V1.176ZM35.742-3.738c1.3-.084,2.562-.168,3.64-.238a9.321,9.321,0,0,1,.644,1.134l1.386-.784A15.735,15.735,0,0,0,38.7-7.056c-.014.014-.042.028-1.19.714.378.406.728.812,1.036,1.2-1.05.056-2.24.112-3.472.168a44.361,44.361,0,0,0,3.472-3.6l-1.386-.8a31.022,31.022,0,0,1-2.73,3.136q-.5-.441-1.092-.882a25.724,25.724,0,0,0,2.24-2.45l-.252-.14a39.449,39.449,0,0,0,5.418-.882L40-11.83A44.971,44.971,0,0,1,28.952-10.7L29.47-9.38c1.26.014,2.716-.056,4.186-.168-.392.532-.9,1.12-1.4,1.68-.364-.238-.756-.49-1.162-.728l-.938.952a20.939,20.939,0,0,1,3.22,2.464c-.112.1-.21.2-.322.294-1.708.07-3.3.112-4.438.14l.308,1.372c1.372-.07,3.276-.168,5.222-.28v4.83h1.6ZM37.1-2.576A19.659,19.659,0,0,1,39.522.63l1.414-.7a20.627,20.627,0,0,0-2.59-3.15Zm-5.642-.518a10.766,10.766,0,0,1-2.464,3.08l1.33.728A12.358,12.358,0,0,0,32.956-2.7Zm21.868-7.6A8.813,8.813,0,0,1,54.32-8.3l1.106-.392a9.862,9.862,0,0,0-1.134-2.394ZM44.352-8.484v-1.638h1.162v1.638Zm0,2.954V-7.224h1.162V-5.53Zm5.88,3.164V-1.3h-1.4V-2.366ZM48.832-3.5v-.994h1.4V-3.5Zm-4.48,1.274v-2.03h1.162v1.82C45.15-2.366,44.744-2.3,44.352-2.226Zm-2,.308L42.658-.49c.742-.168,1.9-.42,2.856-.658V1.176H46.83v-11.3h.476v.84h3.01A19.163,19.163,0,0,1,49.84-7.35h-.658a10.025,10.025,0,0,0-.434-1.918l-1.008.252A10.811,10.811,0,0,1,48.1-7.35H46.872v1.162h5.194a34.064,34.064,0,0,0,.49,4.41A9.667,9.667,0,0,1,51.478-.364V-5.642H47.6V.434h1.232V-.154H51.3c-.224.238-.462.462-.714.686l.994.63A10.55,10.55,0,0,0,52.934-.322c.294.84.672,1.358,1.162,1.456.9.168,1.442-.294,1.638-2.2L54.67-1.4c-.056.966-.126,1.2-.294,1.176-.238-.028-.448-.518-.616-1.344a12.616,12.616,0,0,0,1.456-4.116l-1.134-.294a12.669,12.669,0,0,1-.6,2.31c-.07-.756-.14-1.6-.182-2.52h2.2V-7.35h-2.24c-.042-1.372-.07-2.884-.056-4.438H51.884c.014,1.54.056,3.038.112,4.438H50.932c.21-.588.392-1.176.532-1.652l-1.036-.28H51.66v-1.134H50.2V-11.83H48.86v1.414H47.4V-11.48H42.5v1.358h.546V-2.03C42.784-1.988,42.546-1.946,42.35-1.918Zm25.83-9.576a13.1,13.1,0,0,1-3.15,1.358V-11.83H63.574v3.682c0,1.722.364,2.086,1.974,2.128.546.014,1.456.014,2.072,0,1.47-.042,1.75-.28,1.9-2.324L68.11-8.568c-.014,1.106-.07,1.19-.616,1.2-.5,0-1.33.014-1.806,0-.532-.014-.658-.126-.658-.8v-.672a15.812,15.812,0,0,0,3.962-1.6ZM56.42-8.9l.238,1.316c1.344-.126,3.64-.336,5.25-.5a6.526,6.526,0,0,1,.224.686c1.26-.532,1.288-.546,1.316-.56a11.253,11.253,0,0,0-1.764-3.08l-1.12.546a14.3,14.3,0,0,1,.826,1.316c-.756.056-1.61.112-2.436.154.434-.868.826-1.764,1.106-2.478l-1.442-.322A24.752,24.752,0,0,1,57.54-8.96C57.106-8.932,56.728-8.918,56.42-8.9Zm2.2,3.99v-.938h2.548v.938Zm2.548,3.276V-.476a.223.223,0,0,1-.238.252,7.754,7.754,0,0,1-.966-.014l.266,1.4a8.963,8.963,0,0,0,1.554-.042c.644-.112.868-.546.868-1.288V-7.154h-5.5v8.33h1.47V-1.638ZM58.618-2.814V-3.78h2.548v.966Zm9.576-2.31a12.814,12.814,0,0,1-3.164,1.54V-5.6H63.574v4.27c0,1.82.378,2.2,1.974,2.254.56.014,1.442.014,2.072,0,1.47-.042,1.75-.294,1.9-2.408L68.11-1.708C68.1-.574,68.04-.49,67.494-.476c-.5.014-1.316.014-1.806,0C65.17-.49,65.03-.6,65.03-1.33v-.924a15.925,15.925,0,0,0,3.99-1.82Z"
         transform="translate(185 925)"
         fill="#333"
         id="path50" />
      <path
         d="M4.1-5.912a4.094,4.094,0,0,0-1.64-.336A1.7,1.7,0,0,0,.576-4.52c0,.984.6,1.328,1.472,1.72.808.36,1.2.656,1.2,1.152,0,.688-.5.88-.968.88a4.229,4.229,0,0,1-1.648-.4L.384-.28A5.251,5.251,0,0,0,2.328.1,1.7,1.7,0,0,0,4.248-1.7c0-1.064-.752-1.472-1.656-1.9-.592-.28-1.04-.5-1.04-.968,0-.664.576-.816,1.016-.816a3.117,3.117,0,0,1,1.264.328Zm3.44,2.784,2.584-3.016H8.9l-2.36,3v-3H5.552V0h.992V-2.984L8.976,0h1.312Zm4.608-3.016H11.16V0h.992Zm2.656,0h-.976V0h3.5V-.856h-2.52Zm4.52,0h-.976V0h3.5V-.856h-2.52ZM24.752-3.08c0,1.792.872,3.24,2.88,3.24,2.216,0,2.88-1.7,2.88-3.24,0-1.584-.7-3.208-2.88-3.208s-2.88,1.624-2.88,3.2ZM25.8-3.1c0-1.56.648-2.328,1.832-2.328s1.832.76,1.832,2.328c0,1.72-.76,2.376-1.832,2.376-1.04,0-1.832-.624-1.832-2.368ZM32.888,0V-2.608h2.1v-.856h-2.1V-5.288h2.344v-.856h-3.32V0ZM40.5,0V-5.288h1.752v-.856h-4.48v.856H39.52V0Zm3.648-5.288H46.52v-.856H43.184V0H46.7V-.856H44.152v-1.88H46.24V-3.56H44.152Zm3.528,2.3c0,1.648.664,3.1,2.992,3.1A5.273,5.273,0,0,0,52.152-.1l-.1-.9a4.575,4.575,0,0,1-1.336.224c-1.352,0-1.984-.848-1.984-2.208,0-1.432.552-2.416,1.96-2.416a3.621,3.621,0,0,1,1.264.232l.16-.888a5.376,5.376,0,0,0-1.456-.216C48.3-6.272,47.68-4.68,47.68-3Zm6.672.28H57.3V0h.984V-6.144H57.3v2.576H54.352V-6.144H53.36V0h.992Zm6.5-2.312L63.656,0h1.12V-6.144h-.928V-1.5l-2.624-4.64h-1.3V0h.928Zm5.28,1.944c0,1.792.872,3.24,2.88,3.24,2.216,0,2.88-1.7,2.88-3.24,0-1.584-.7-3.208-2.88-3.208s-2.88,1.624-2.88,3.2ZM67.176-3.1c0-1.56.648-2.328,1.832-2.328s1.832.76,1.832,2.328c0,1.72-.76,2.376-1.832,2.376-1.04,0-1.832-.624-1.832-2.368Zm7.088-3.048h-.976V0h3.5V-.856h-2.52ZM77.528-3.08c0,1.792.872,3.24,2.88,3.24,2.216,0,2.88-1.7,2.88-3.24,0-1.584-.7-3.208-2.88-3.208s-2.88,1.624-2.88,3.2ZM78.576-3.1c0-1.56.648-2.328,1.832-2.328s1.832.76,1.832,2.328c0,1.72-.76,2.376-1.832,2.376-1.04,0-1.832-.624-1.832-2.368ZM88.312-.88a2.924,2.924,0,0,1-.864.128c-1.432,0-1.976-.872-1.976-2.232,0-1.432.552-2.416,1.952-2.416a3.553,3.553,0,0,1,1.264.232l.168-.888A5.477,5.477,0,0,0,87.4-6.272c-2.368,0-2.984,1.592-2.984,3.28,0,1.648.656,3.1,3,3.1a5.644,5.644,0,0,0,1.808-.3v-3.2h-2.2v.824h1.288ZM92.2-2.712V0h.984V-2.72l2.28-3.424H94.312L92.736-3.5,91.1-6.144H89.928Z"
         transform="translate(172.224 940)"
         fill="#aea772"
         id="path52" />
    </g>
    <path
       d="M4.54-15.36H2.1V0h8.74V-2.14H4.54ZM17.3-2.9l-3.02-8.72H11.7L16.12,0h2.24l4.4-11.62H20.18Zm9.98.1H24.76V0h2.52Zm10.8-16.37V0H41.8V-23.22H38.98a23.74,23.74,0,0,1-6,2.91l.66,2.85A27.632,27.632,0,0,0,38.08-19.17Z"
       transform="translate(375.425 1277)"
       fill="#aea772"
       id="path56" />
    <path
       d="M4.54-15.36H2.1V0h8.74V-2.14H4.54ZM17.3-2.9l-3.02-8.72H11.7L16.12,0h2.24l4.4-11.62H20.18Zm9.98.1H24.76V0h2.52ZM42.37-16.95c0,2.19-1.71,4.59-4.92,8.1a64.478,64.478,0,0,1-5.97,5.79V0H46.39V-3.21H35.92c1.44-1.29,3.27-2.82,5.22-4.86C44.41-11.49,46-14.19,46-17.13c0-4.98-3.39-6.39-7.11-6.39a16.147,16.147,0,0,0-6.6,1.47l.75,3.24a12.8,12.8,0,0,1,5.61-1.47c2.28,0,3.72,1.14,3.72,3.3Z"
       transform="translate(375.425 1213)"
       fill="#aea772"
       id="path58" />
    <path
       d="M4.54-15.36H2.1V0h8.74V-2.14H4.54ZM17.3-2.9l-3.02-8.72H11.7L16.12,0h2.24l4.4-11.62H20.18Zm9.98.1H24.76V0h2.52Zm13.71-9.62a5.073,5.073,0,0,0,4.23-5.19c0-4.32-2.82-5.85-6.93-5.85a14.342,14.342,0,0,0-6.21,1.5l.87,3.09a11.184,11.184,0,0,1,5.16-1.38c2.16,0,3.51,1.08,3.51,3.03,0,2.46-1.68,3.9-5.52,3.9H34.66v2.91h2.22c3.6,0,5.25,1.2,5.25,3.51,0,3.18-2.31,4.14-5.16,4.14a17.245,17.245,0,0,1-4.53-.75L31.81-.18a26.519,26.519,0,0,0,5.25.63c6.27,0,8.85-3.21,8.85-7.11C45.91-10.05,44.26-12.09,40.99-12.42Z"
       transform="translate(375.425 1149)"
       fill="#aea772"
       id="path60" />
    <path
       d="M4.54-15.36H2.1V0h8.74V-2.14H4.54ZM17.3-2.9l-3.02-8.72H11.7L16.12,0h2.24l4.4-11.62H20.18Zm9.98.1H24.76V0h2.52ZM44.62-23.1H40.96L30.52-7.5v2.64H41.2V0h3.42V-4.86h3V-7.8h-3ZM34-7.8l7.2-10.83V-7.8Z"
       transform="translate(375.425 1085)"
       fill="#aea772"
       id="path62" />
    <path
       d="M4.54-15.36H2.1V0h8.74V-2.14H4.54ZM17.3-2.9l-3.02-8.72H11.7L16.12,0h2.24l4.4-11.62H20.18Zm9.98.1H24.76V0h2.52Zm8.46-10.67.72-6.45H45.4v-3.12H33.55L32.32-10.92l1.92.87a8.183,8.183,0,0,1,4.29-1.26c2.25,0,4.14,1.05,4.14,3.81,0,3.6-2.46,4.74-5.04,4.74A18.181,18.181,0,0,1,32.5-3.6L31.99-.33a23.246,23.246,0,0,0,5.67.78c5.01,0,8.67-2.37,8.67-7.89,0-4.92-3.09-6.93-6.87-6.93A8.574,8.574,0,0,0,35.74-13.47Z"
       transform="translate(375.425 1021)"
       fill="#aea772"
       id="path64" />
    <g
       transform="translate(0 12)"
       id="g74">
      <g
         aria-label="組織系職能"
         transform="translate(545 925)"
         style="font-weight:500;font-size:14px;font-family:AxisStd-Medium, 'AXIS Std';fill:#333333"
         id="text68">
        <path
           d="m 8.274,-7.784 v -2.198 h 2.758 v 2.198 z m 0,3.598 V -6.44 h 2.758 v 2.254 z m 0,3.668 v -2.324 h 2.758 v 2.324 z m -2.618,0 v 1.4 h 7.84 v -1.4 H 12.53 v -10.85 H 6.832 v 10.85 z M 4.312,-4.466 c 0.322,-0.042 0.63,-0.084 0.924,-0.112 0.084,0.224 0.154,0.434 0.21,0.63 C 5.824,-4.144 6.216,-4.34 6.664,-4.564 6.412,-5.362 5.866,-6.412 5.18,-7.364 L 4.032,-6.748 C 4.27,-6.426 4.494,-6.062 4.69,-5.698 4.144,-5.656 3.514,-5.614 2.912,-5.586 4.13,-7.112 5.25,-8.708 6.034,-9.94 L 4.69,-10.556 c -0.364,0.7 -0.91,1.568 -1.54,2.492 -0.168,-0.21 -0.364,-0.434 -0.574,-0.658 0.644,-0.882 1.246,-1.806 1.638,-2.548 l -1.316,-0.546 c -0.266,0.602 -0.728,1.4 -1.232,2.198 C 1.54,-9.73 1.414,-9.842 1.288,-9.954 l -0.742,1.022 c 0.686,0.588 1.358,1.316 1.848,1.946 -0.378,0.504 -0.756,1.008 -1.148,1.512 -0.322,0.014 -0.616,0.028 -0.854,0.042 l 0.266,1.358 C 1.246,-4.13 2.03,-4.214 2.842,-4.298 v 5.474 h 1.47 z m 0.35,1.008 c 0.308,0.854 0.532,1.862 0.602,2.604 l 1.302,-0.35 C 6.496,-1.918 6.258,-2.898 5.936,-3.794 5.544,-3.696 5.152,-3.598 4.662,-3.458 Z M 1.148,-3.64 C 1.05,-2.408 0.77,-1.162 0.42,-0.182 l 1.26,0.406 c 0.35,-1.022 0.63,-2.338 0.756,-3.64 z"
           style=""
           id="path930" />
        <path
           d="m 25.326,-10.696 c 0.49,0.854 0.826,1.652 0.994,2.394 l 1.106,-0.392 c -0.224,-0.742 -0.588,-1.526 -1.134,-2.394 z m -7.658,6.132 0.658,-0.07 c 0.056,0.168 0.084,0.336 0.112,0.49 l 1.008,-0.378 C 19.348,-5.012 19.152,-5.6 18.872,-6.188 h 5.194 c 0.098,1.68 0.252,3.206 0.49,4.41 -0.336,0.532 -0.7,1.022 -1.12,1.47 V -5.642 H 20.86 20.314 19.656 v 6.076 h 1.204 v -0.588 h 2.436 c -0.224,0.238 -0.462,0.462 -0.714,0.686 l 0.994,0.63 c 0.49,-0.448 0.952,-0.938 1.358,-1.484 0.294,0.84 0.672,1.358 1.162,1.456 0.896,0.168 1.442,-0.294 1.638,-2.198 L 26.67,-1.4 c -0.056,0.966 -0.126,1.204 -0.294,1.176 -0.238,-0.028 -0.448,-0.518 -0.616,-1.344 0.7,-1.218 1.19,-2.604 1.456,-4.116 l -1.134,-0.294 c -0.14,0.826 -0.336,1.596 -0.602,2.31 -0.07,-0.756 -0.14,-1.596 -0.182,-2.52 h 2.198 V -7.35 h -2.24 c -0.042,-1.372 -0.07,-2.884 -0.056,-4.438 h -1.316 c 0.014,1.54 0.056,3.038 0.112,4.438 h -1.064 c 0.21,-0.588 0.392,-1.176 0.532,-1.652 l -1.036,-0.28 h 1.232 v -1.134 H 22.204 V -11.83 H 20.86 v 1.414 h -1.554 v 1.134 h 3.01 c -0.098,0.518 -0.266,1.246 -0.476,1.932 h -0.658 c -0.07,-0.56 -0.21,-1.26 -0.434,-1.918 l -1.008,0.252 c 0.168,0.546 0.294,1.148 0.364,1.666 h -1.232 v 1.148 c -0.154,-0.336 -0.322,-0.672 -0.518,-0.98 l -0.952,0.392 c 0.21,0.35 0.406,0.728 0.56,1.106 -0.462,0.028 -0.994,0.056 -1.498,0.084 1.078,-1.554 2.072,-3.192 2.744,-4.452 l -1.162,-0.504 C 17.752,-9.898 17.318,-9.072 16.8,-8.204 16.632,-8.4 16.45,-8.61 16.24,-8.82 c 0.588,-0.868 1.134,-1.82 1.512,-2.548 l -1.106,-0.448 c -0.252,0.616 -0.686,1.456 -1.162,2.268 -0.112,-0.098 -0.224,-0.196 -0.336,-0.294 l -0.644,0.91 c 0.63,0.518 1.246,1.176 1.68,1.75 -0.336,0.546 -0.7,1.106 -1.064,1.652 -0.266,0 -0.49,0.014 -0.686,0.014 l 0.21,1.274 c 0.476,-0.042 1.092,-0.112 1.736,-0.182 v 5.6 h 1.288 z m 4.536,2.198 v 1.064 H 20.86 V -2.366 Z M 20.86,-3.5 v -0.994 h 1.344 V -3.5 Z m -2.954,-0.07 c 0.238,0.938 0.406,2.03 0.434,2.814 l 1.05,-0.224 c -0.028,-0.784 -0.21,-1.848 -0.462,-2.842 z m -2.814,-0.182 c -0.056,1.246 -0.322,2.506 -0.672,3.486 0.392,0.14 0.686,0.252 0.98,0.378 0.364,-1.05 0.616,-2.38 0.7,-3.696 z"
           style=""
           id="path932" />
        <path
           d="m 35.742,-3.738 c 1.302,-0.084 2.562,-0.168 3.64,-0.238 0.252,0.378 0.462,0.756 0.644,1.134 l 1.386,-0.784 c -0.602,-1.092 -1.498,-2.212 -2.716,-3.43 -0.014,0.014 -0.042,0.028 -1.19,0.714 0.378,0.406 0.728,0.812 1.036,1.204 -1.05,0.056 -2.24,0.112 -3.472,0.168 1.358,-1.26 2.59,-2.562 3.472,-3.598 l -1.386,-0.798 c -0.63,0.868 -1.624,2.002 -2.73,3.136 -0.336,-0.294 -0.7,-0.588 -1.092,-0.882 0.868,-0.84 1.68,-1.736 2.24,-2.45 l -0.252,-0.14 c 2.044,-0.21 4.004,-0.518 5.418,-0.882 l -0.742,-1.246 c -2.59,0.728 -7.546,1.232 -11.046,1.134 l 0.518,1.316 c 1.26,0.014 2.716,-0.056 4.186,-0.168 -0.392,0.532 -0.896,1.12 -1.4,1.68 -0.364,-0.238 -0.756,-0.49 -1.162,-0.728 l -0.938,0.952 c 1.288,0.826 2.38,1.652 3.22,2.464 -0.112,0.098 -0.21,0.196 -0.322,0.294 -1.708,0.07 -3.304,0.112 -4.438,0.14 l 0.308,1.372 c 1.372,-0.07 3.276,-0.168 5.222,-0.28 v 4.83 h 1.596 z m 1.358,1.162 c 1.022,1.134 1.848,2.212 2.422,3.206 l 1.414,-0.7 c -0.644,-0.994 -1.484,-2.016 -2.59,-3.15 z m -5.642,-0.518 c -0.518,1.05 -1.47,2.212 -2.464,3.08 l 1.33,0.728 c 1.064,-0.98 2.044,-2.226 2.632,-3.416 z"
           style=""
           id="path934" />
        <path
           d="m 53.326,-10.696 c 0.49,0.854 0.826,1.652 0.994,2.394 l 1.106,-0.392 c -0.224,-0.742 -0.588,-1.526 -1.134,-2.394 z m -8.974,2.212 v -1.638 h 1.162 v 1.638 z m 0,2.954 v -1.694 h 1.162 v 1.694 z m 5.88,3.164 v 1.064 h -1.4 v -1.064 z m -1.4,-1.134 v -0.994 h 1.4 V -3.5 Z m -4.48,1.274 v -2.03 h 1.162 v 1.82 c -0.364,0.07 -0.77,0.14 -1.162,0.21 z m -2.002,0.308 0.308,1.428 c 0.742,-0.168 1.904,-0.42 2.856,-0.658 v 2.324 h 1.316 v -11.298 h 0.476 v 0.84 h 3.01 c -0.098,0.518 -0.266,1.246 -0.476,1.932 h -0.658 c -0.07,-0.56 -0.21,-1.26 -0.434,-1.918 l -1.008,0.252 c 0.168,0.546 0.294,1.148 0.364,1.666 h -1.232 v 1.162 h 5.194 c 0.098,1.68 0.252,3.206 0.49,4.41 -0.322,0.504 -0.672,0.98 -1.078,1.414 V -5.642 H 48.832 48.342 47.6 v 6.076 h 1.232 v -0.588 h 2.464 c -0.224,0.238 -0.462,0.462 -0.714,0.686 l 0.994,0.63 c 0.49,-0.448 0.952,-0.938 1.358,-1.484 0.294,0.84 0.672,1.358 1.162,1.456 0.896,0.168 1.442,-0.294 1.638,-2.198 L 54.67,-1.4 c -0.056,0.966 -0.126,1.204 -0.294,1.176 -0.238,-0.028 -0.448,-0.518 -0.616,-1.344 0.7,-1.218 1.19,-2.604 1.456,-4.116 l -1.134,-0.294 c -0.14,0.826 -0.336,1.596 -0.602,2.31 -0.07,-0.756 -0.14,-1.596 -0.182,-2.52 h 2.198 V -7.35 h -2.24 c -0.042,-1.372 -0.07,-2.884 -0.056,-4.438 h -1.316 c 0.014,1.54 0.056,3.038 0.112,4.438 h -1.064 c 0.21,-0.588 0.392,-1.176 0.532,-1.652 l -1.036,-0.28 h 1.232 v -1.134 H 50.204 V -11.83 H 48.86 v 1.414 h -1.456 v -1.064 h -4.9 v 1.358 h 0.546 v 8.092 c -0.266,0.042 -0.504,0.084 -0.7,0.112 z"
           style=""
           id="path936" />
        <path
           d="m 68.18,-11.494 c -0.714,0.476 -1.974,1.008 -3.15,1.358 v -1.694 h -1.456 v 3.682 c 0,1.722 0.364,2.086 1.974,2.128 0.546,0.014 1.456,0.014 2.072,0 1.47,-0.042 1.75,-0.28 1.904,-2.324 L 68.11,-8.568 c -0.014,1.106 -0.07,1.19 -0.616,1.204 -0.504,0 -1.33,0.014 -1.806,0 C 65.156,-7.378 65.03,-7.49 65.03,-8.162 v -0.672 c 1.358,-0.35 3.01,-0.994 3.962,-1.596 z m -11.76,2.59 0.238,1.316 c 1.344,-0.126 3.64,-0.336 5.25,-0.504 0.084,0.224 0.168,0.462 0.224,0.686 1.26,-0.532 1.288,-0.546 1.316,-0.56 -0.336,-0.952 -0.91,-1.974 -1.764,-3.08 l -1.12,0.546 c 0.322,0.448 0.588,0.896 0.826,1.316 -0.756,0.056 -1.61,0.112 -2.436,0.154 0.434,-0.868 0.826,-1.764 1.106,-2.478 l -1.442,-0.322 c -0.224,0.77 -0.63,1.862 -1.078,2.87 -0.434,0.028 -0.812,0.042 -1.12,0.056 z m 2.198,3.99 v -0.938 h 2.548 v 0.938 z m 2.548,3.276 v 1.162 c 0,0.14 -0.056,0.238 -0.238,0.252 -0.154,0.014 -0.63,0.014 -0.966,-0.014 l 0.266,1.4 C 60.746,1.19 61.46,1.176 61.782,1.12 62.426,1.008 62.65,0.574 62.65,-0.168 v -6.986 h -0.84 -0.644 -4.018 v 8.33 h 1.47 V -1.638 Z M 58.618,-2.814 V -3.78 h 2.548 v 0.966 z m 9.576,-2.31 C 67.48,-4.592 66.22,-3.99 65.03,-3.584 V -5.6 h -1.456 v 4.27 c 0,1.82 0.378,2.198 1.974,2.254 0.56,0.014 1.442,0.014 2.072,0 1.47,-0.042 1.75,-0.294 1.904,-2.408 L 68.11,-1.708 c -0.014,1.134 -0.07,1.218 -0.616,1.232 -0.504,0.014 -1.316,0.014 -1.806,0 C 65.17,-0.49 65.03,-0.602 65.03,-1.33 v -0.924 c 1.372,-0.406 3.038,-1.162 3.99,-1.82 z"
           style=""
           id="path938" />
      </g>
      <g
         aria-label="SKILL OF TEAM"
         transform="translate(549.588 940)"
         style="font-weight:500;font-size:8px;font-family:AxisStd-Medium, 'AXIS Std';fill:#aea772"
         id="text72">
        <path
           d="M 4.104,-5.912 C 3.752,-6.08 3.128,-6.248 2.464,-6.248 c -0.808,0 -1.888,0.384 -1.888,1.728 0,0.984 0.6,1.328 1.472,1.72 0.808,0.36 1.2,0.656 1.2,1.152 0,0.688 -0.504,0.88 -0.968,0.88 -0.52,0 -1.176,-0.176 -1.648,-0.4 L 0.384,-0.28 c 0.464,0.216 1.28,0.384 1.944,0.384 1.008,0 1.92,-0.456 1.92,-1.808 0,-1.064 -0.752,-1.472 -1.656,-1.904 -0.592,-0.28 -1.04,-0.504 -1.04,-0.968 0,-0.664 0.576,-0.816 1.016,-0.816 0.4,0 0.92,0.152 1.264,0.328 z"
           style=""
           id="path907" />
        <path
           d="m 7.55075,-3.128 2.584,-3.016 h -1.224 l -2.36,3 v -3 h -0.992 V 0 h 0.992 V -2.984 L 8.98275,0 h 1.312 z"
           style=""
           id="path909" />
        <path
           d="m 12.1525,-6.144 h -0.992 V 0 h 0.992 z"
           style=""
           id="path911" />
        <path
           d="M 14.816,-6.144 H 13.84 V 0 h 3.496 v -0.856 h -2.52 z"
           style=""
           id="path913" />
        <path
           d="m 19.331625,-6.144 h -0.976 V 0 h 3.496 v -0.856 h -2.52 z"
           style=""
           id="path915" />
        <path
           d="m 24.7475,-3.08 c 0,1.792 0.872,3.24 2.88,3.24 2.216,0 2.88,-1.696 2.88,-3.24 0,-1.584 -0.704,-3.208 -2.88,-3.208 -2.176,0 -2.88,1.624 -2.88,3.2 z m 1.048,-0.016 c 0,-1.56 0.648,-2.328 1.832,-2.328 1.192,0 1.832,0.76 1.832,2.328 0,1.72 -0.76,2.376 -1.832,2.376 -1.04,0 -1.832,-0.624 -1.832,-2.368 z"
           style=""
           id="path917" />
        <path
           d="m 32.8785,0 v -2.608 h 2.096 v -0.856 h -2.096 v -1.824 h 2.344 v -0.856 h -3.32 V 0 Z"
           style=""
           id="path919" />
        <path
           d="m 40.487875,0 v -5.288 h 1.752 v -0.856 h -4.48 v 0.856 h 1.744 V 0 Z"
           style=""
           id="path921" />
        <path
           d="m 44.136125,-5.288 h 2.368 v -0.856 h -3.336 V 0 h 3.512 v -0.856 h -2.544 v -1.88 h 2.088 V -3.56 h -2.088 z"
           style=""
           id="path923" />
        <path
           d="m 47.197375,0 h 1 l 0.584,-1.632 h 2.368 l 0.6,1.632 h 1.08 l -2.368,-6.144 h -0.896 z m 1.832,-2.4 0.952,-2.656 0.944,2.656 z"
           style=""
           id="path925" />
        <path
           d="M 58.90625,-4.944 59.11425,0 h 0.992 l -0.312,-6.144 h -1.352 l -1.608,4.648 -1.608,-4.648 h -1.304 L 53.60225,0 h 0.936 l 0.192,-4.936 1.64,4.696 h 0.856 z"
           style=""
           id="path927" />
      </g>
    </g>
    <line
       x2="599.5"
       transform="translate(100.5 975.5)"
       fill="none"
       stroke="#aea772"
       stroke-width="1"
       stroke-dasharray="1 2"
       id="line76" />
    <line
       x2="599.5"
       transform="translate(100.5 1039.5)"
       fill="none"
       stroke="#aea772"
       stroke-width="1"
       stroke-dasharray="1 2"
       id="line78" />
    <line
       x2="599.5"
       transform="translate(100.5 1103.5)"
       fill="none"
       stroke="#aea772"
       stroke-width="1"
       stroke-dasharray="1 2"
       id="line80" />
    <line
       x2="599.5"
       transform="translate(100.5 1231.5)"
       fill="none"
       stroke="#aea772"
       stroke-width="1"
       stroke-dasharray="1 2"
       id="line82" />
    <line
       x2="599.5"
       transform="translate(100.5 1167.5)"
       fill="none"
       stroke="#aea772"
       stroke-width="1"
       stroke-dasharray="1 2"
       id="line84" />
    <line
       x2="599.5"
       transform="translate(100.5 1295.5)"
       fill="none"
       stroke="#aea772"
       stroke-width="1"
       stroke-dasharray="1 2"
       id="line86" />
    <line
       y2="40"
       transform="translate(220.5 1296.5)"
       fill="none"
       stroke="#aea772"
       stroke-width="1"
       id="line88" />
    <line
       y2="40"
       transform="translate(580.5 1296.5)"
       fill="none"
       stroke="#aea772"
       stroke-width="1"
       id="line90" />
  </g>
</svg>
